<svg xmlns="http://www.w3.org/2000/svg" viewBox="0 0 66.58 60.17"><defs><style>.cls-1,.cls-2,.cls-3{fill:#fff;}.cls-1{opacity:0.4;}.cls-2{opacity:0.7;}</style></defs><title>Asset 16</title><g id="Layer_2" data-name="Layer 2"><g id="Layer_1-2" data-name="Layer 1"><path class="cls-1" d="M65,44.48l-9-3.36-16.19,6.1a18,18,0,0,1-6.59,1.19,19.25,19.25,0,0,1-6.59-1.19l-16.19-6.1-9,3.36A2.36,2.36,0,0,0,0,46.8a2.45,2.45,0,0,0,1.54,2.31L28.45,59.27a13.54,13.54,0,0,0,9.67,0L65,49.11a2.34,2.34,0,0,0,1.54-2.31A2.47,2.47,0,0,0,65,44.48Z"/><path class="cls-2" d="M65,27.74l-9-3.37-16.19,6.1a18,18,0,0,1-6.59,1.19,19.25,19.25,0,0,1-6.59-1.19l-16.19-6.1-9,3.37A2.34,2.34,0,0,0,0,30.05a2.45,2.45,0,0,0,1.54,2.31L28.45,42.52a13.54,13.54,0,0,0,9.67,0L65,32.36a2.34,2.34,0,0,0,1.54-2.31A2.45,2.45,0,0,0,65,27.74Z"/><path class="cls-3" d="M1.54,15.68,28.45,25.84a13.54,13.54,0,0,0,9.67,0L65,15.68a2.39,2.39,0,0,0,1.54-2.31A2.45,2.45,0,0,0,65,11.06L38.12.89a13.54,13.54,0,0,0-9.67,0L1.54,11.06A2.34,2.34,0,0,0,0,13.37,2.51,2.51,0,0,0,1.54,15.68Z"/></g></g></svg>