<svg xmlns="http://www.w3.org/2000/svg" viewBox="0 0 292.13 60.17"><defs><style>.cls-1,.cls-2,.cls-3{fill:#fff;}.cls-1{opacity:0.4;}.cls-2{opacity:0.7;}</style></defs><title>Asset 12</title><g id="Layer_2" data-name="Layer 2"><g id="Layer_1-2" data-name="Layer 1"><path class="cls-1" d="M65,44.48l-9-3.36-16.19,6.1a18,18,0,0,1-6.59,1.19,19.25,19.25,0,0,1-6.59-1.19l-16.19-6.1-9,3.36A2.36,2.36,0,0,0,0,46.8a2.45,2.45,0,0,0,1.54,2.31L28.45,59.27a13.54,13.54,0,0,0,9.67,0L65,49.11a2.34,2.34,0,0,0,1.54-2.31A2.47,2.47,0,0,0,65,44.48Z"/><path class="cls-2" d="M65,27.74l-9-3.37-16.19,6.1a18,18,0,0,1-6.59,1.19,19.25,19.25,0,0,1-6.59-1.19l-16.19-6.1-9,3.37A2.34,2.34,0,0,0,0,30.05a2.45,2.45,0,0,0,1.54,2.31L28.45,42.52a13.54,13.54,0,0,0,9.67,0L65,32.36a2.34,2.34,0,0,0,1.54-2.31A2.45,2.45,0,0,0,65,27.74Z"/><path class="cls-3" d="M1.54,15.68,28.45,25.84a13.54,13.54,0,0,0,9.67,0L65,15.68a2.39,2.39,0,0,0,1.54-2.31A2.45,2.45,0,0,0,65,11.06L38.12.89a13.54,13.54,0,0,0-9.67,0L1.54,11.06A2.34,2.34,0,0,0,0,13.37,2.51,2.51,0,0,0,1.54,15.68Z"/><path class="cls-3" d="M87.13,39.56c.41,3.49,4.05,5.78,8.75,5.78s8-2.26,8-5.37c0-2.76-2-4.29-7.14-5.44l-5.52-1.2c-7.81-1.68-11.66-5.64-11.66-11.84,0-7.81,6.76-13,16.22-13,9.87,0,16.06,5.09,16.21,12.75h-8.31c-.3-3.58-3.44-5.75-7.88-5.75s-7.31,2.08-7.31,5.23c0,2.61,2.06,4.08,6.93,5.2L100.52,27c8.49,1.82,12.2,5.47,12.2,11.93,0,8.23-6.67,13.43-17.19,13.43-10.19,0-16.69-4.85-17-12.81Z"/><path class="cls-3" d="M116.21,42.58c0-5.73,4.41-9,12.25-9.52l7.93-.47V30.51c0-2.94-2-4.64-5.28-4.64s-5.23,1.58-5.64,3.9h-7.85c.32-6.11,5.52-10.31,13.87-10.31,8.08,0,13.34,4.17,13.34,10.52V51.63h-8.29V46.81h-.18c-1.76,3.35-5.67,5.32-9.6,5.32C120.77,52.13,116.21,48.25,116.21,42.58Zm20.18-2.49v-2.3l-6.64.42c-3.2.23-5,1.67-5,3.9s1.94,3.82,4.85,3.82C133.31,45.93,136.39,43.49,136.39,40.09Z"/><path class="cls-3" d="M149.14,42.58c0-5.73,4.41-9,12.25-9.52l7.94-.47V30.51c0-2.94-2.06-4.64-5.29-4.64s-5.23,1.58-5.64,3.9h-7.85c.33-6.11,5.53-10.31,13.87-10.31,8.08,0,13.34,4.17,13.34,10.52V51.63h-8.29V46.81h-.17c-1.77,3.35-5.67,5.32-9.61,5.32C153.7,52.13,149.14,48.25,149.14,42.58Zm20.19-2.49v-2.3l-6.64.42c-3.2.23-5,1.67-5,3.9s1.94,3.82,4.85,3.82C166.24,45.93,169.33,43.49,169.33,40.09Z"/><path class="cls-3" d="M191,39.56c.41,3.49,4.05,5.78,8.75,5.78s8-2.26,8-5.37c0-2.76-2-4.29-7.13-5.44L195,33.33c-7.81-1.68-11.66-5.64-11.66-11.84,0-7.81,6.76-13,16.22-13,9.87,0,16.07,5.09,16.21,12.75h-8.31c-.3-3.58-3.44-5.75-7.87-5.75s-7.32,2.08-7.32,5.23c0,2.61,2.06,4.08,6.93,5.2L204.37,27c8.49,1.82,12.2,5.47,12.2,11.93,0,8.23-6.67,13.43-17.19,13.43-10.19,0-16.69-4.85-16.95-12.81Z"/><path class="cls-3" d="M222,51.63V9.24h8.87V28.57h.27L247.06,9.24h9.87L241.24,28,258,51.63H247.41L234.84,33.92l-4,4.76v13Z"/><path class="cls-3" d="M260.87,12.24a4.58,4.58,0,1,1,4.58,4.43A4.45,4.45,0,0,1,260.87,12.24Zm.29,7.9h8.58V51.63h-8.58Z"/><path class="cls-3" d="M286.31,12.88v7.26h5.82V26.6h-5.82V41.67c0,2.41,1.17,3.56,3.7,3.56a13.71,13.71,0,0,0,2.09-.15V51.4a20.17,20.17,0,0,1-4.09.35c-7.4,0-10.28-2.47-10.28-8.61V26.6h-4.44V20.14h4.44V12.88Z"/></g></g></svg>