<svg xmlns="http://www.w3.org/2000/svg" viewBox="0 0 116.93 96.57"><defs><style>.cls-1{fill:#bfe9ff;}.cls-2{fill:#56b4fc;}.cls-3{fill:#2552f0;}.cls-4{fill:#1a202c;}</style></defs><title>Asset 13</title><g id="Layer_2" data-name="Layer 2"><g id="Layer_1-2" data-name="Layer 1"><path class="cls-1" d="M90.21,44.48l-9-3.36-16.19,6.1a17.93,17.93,0,0,1-6.59,1.19,19.19,19.19,0,0,1-6.58-1.19l-16.19-6.1-9,3.36a2.36,2.36,0,0,0-1.55,2.32,2.45,2.45,0,0,0,1.55,2.31L53.63,59.27a13.54,13.54,0,0,0,9.67,0L90.21,49.11a2.34,2.34,0,0,0,1.54-2.31A2.47,2.47,0,0,0,90.21,44.48Z"/><path class="cls-2" d="M90.21,27.74l-9-3.37-16.19,6.1a17.93,17.93,0,0,1-6.59,1.19,19.19,19.19,0,0,1-6.58-1.19l-16.19-6.1-9,3.37a2.34,2.34,0,0,0-1.55,2.31,2.45,2.45,0,0,0,1.55,2.31L53.63,42.52a13.54,13.54,0,0,0,9.67,0L90.21,32.36a2.34,2.34,0,0,0,1.54-2.31A2.45,2.45,0,0,0,90.21,27.74Z"/><path class="cls-3" d="M26.72,15.68,53.63,25.84a13.54,13.54,0,0,0,9.67,0L90.21,15.68a2.39,2.39,0,0,0,1.54-2.31,2.45,2.45,0,0,0-1.54-2.31L63.3.89a13.54,13.54,0,0,0-9.67,0L26.72,11.06a2.34,2.34,0,0,0-1.55,2.31A2.51,2.51,0,0,0,26.72,15.68Z"/><path class="cls-4" d="M4.68,89.55c.23,1.92,2.22,3.17,4.79,3.17s4.36-1.24,4.36-2.94c0-1.51-1.11-2.35-3.91-3l-3-.66C2.62,85.23.51,83.06.51,79.66c0-4.28,3.7-7.11,8.88-7.11,5.41,0,8.8,2.78,8.88,7H13.72c-.16-2-1.88-3.15-4.31-3.15s-4,1.14-4,2.86c0,1.44,1.13,2.24,3.8,2.85l2.82.6c4.64,1,6.67,3,6.67,6.53,0,4.5-3.65,7.35-9.41,7.35-5.58,0-9.14-2.66-9.28-7Z"/><path class="cls-4" d="M20.61,91.21c0-3.14,2.41-4.95,6.7-5.21l4.35-.26V84.6c0-1.61-1.13-2.54-2.9-2.54s-2.86.87-3.09,2.14H21.38c.17-3.35,3-5.65,7.59-5.65s7.3,2.29,7.3,5.76V96.17H31.74V93.53h-.1a5.93,5.93,0,0,1-5.26,2.91C23.1,96.44,20.61,94.32,20.61,91.21Zm11.05-1.37V88.59L28,88.81c-1.75.13-2.75.92-2.75,2.14s1.06,2.1,2.65,2.1C30,93.05,31.66,91.71,31.66,89.84Z"/><path class="cls-4" d="M38.64,91.21c0-3.14,2.41-4.95,6.71-5.21l4.34-.26V84.6c0-1.61-1.13-2.54-2.9-2.54s-2.86.87-3.08,2.14h-4.3c.18-3.35,3-5.65,7.59-5.65s7.31,2.29,7.31,5.76V96.17H49.77V93.53h-.1a5.93,5.93,0,0,1-5.26,2.91C41.13,96.44,38.64,94.32,38.64,91.21Zm11-1.37V88.59l-3.64.22c-1.75.13-2.75.92-2.75,2.14s1.06,2.1,2.66,2.1C48,93.05,49.69,91.71,49.69,89.84Z"/><path class="cls-4" d="M61.54,89.55c.23,1.92,2.22,3.17,4.8,3.17s4.36-1.24,4.36-2.94c0-1.51-1.11-2.35-3.91-3l-3-.66c-4.27-.91-6.38-3.08-6.38-6.48,0-4.28,3.7-7.11,8.88-7.11,5.4,0,8.8,2.78,8.88,7H70.58c-.16-2-1.88-3.15-4.31-3.15s-4,1.14-4,2.86c0,1.44,1.12,2.24,3.79,2.85l2.82.6c4.65,1,6.68,3,6.68,6.53,0,4.5-3.66,7.35-9.42,7.35-5.58,0-9.13-2.66-9.28-7Z"/><path class="cls-4" d="M78.53,96.17V73h4.86V83.54h.14L92.25,73h5.41l-8.59,10.3,9.18,12.92h-5.8l-6.89-9.7-2.17,2.6v7.1Z"/><path class="cls-4" d="M99.81,74.59A2.51,2.51,0,1,1,102.32,77,2.44,2.44,0,0,1,99.81,74.59Zm.16,4.33h4.7V96.17H100Z"/><path class="cls-4" d="M113.74,75v4h3.19v3.54h-3.19v8.25c0,1.32.65,2,2,2a7.34,7.34,0,0,0,1.14-.08V96a11,11,0,0,1-2.23.19c-4.06,0-5.63-1.35-5.63-4.71V82.46h-2.43V78.92h2.43V75Z"/></g></g></svg>